<svg xmlns="http://www.w3.org/2000/svg" xmlns:xlink="http://www.w3.org/1999/xlink" version="1.1" x="0px" y="0px" viewBox="0 0 100 100" enable-background="new 0 0 100 100" xml:space="preserve"><path d="M95,14.296L29.416,79.881v-5.596l62.223-62.223h-7.777L29.416,66.506V60.91l48.849-48.848h-7.779L49.812,32.734  L29.14,12.062h-7.779l24.562,24.563l-2.799,2.798l-27.36-27.361H7.986l31.25,31.25l-2.798,2.798L5,14.673v7.696v0.083v65.485h5.5  V27.953l3.958,3.957v56.027h5.5V37.412l3.958,3.957v46.568h2.75h2.475h0.276V87.66l20.396-20.395l20.674,20.672h0.099h1.541h3.959  V40.994l3.958-3.959v50.902h5.5V31.535l3.958-3.958v60.36H95V22.369h-0.291L95,22.078V14.296z M32.546,50l-3.13,3.131v-6.262  L32.546,50z M63.188,53.891l7.396,7.396v5.598L60.389,56.688L63.188,53.891z M53.702,63.375l2.798-2.799l14.084,14.086v5.596  L53.702,63.375z M70.584,53.506l-3.506-3.507l3.506-3.506V53.506z"/></svg>